<?xml version="1.0" encoding="utf-8"?>
<svg xmlns="http://www.w3.org/2000/svg">
  <symbol id="icon-github" viewBox= "0 0 24 24">
    <path d="M9 19c-5 1.5-5-2.5-7-3m14 6v-3.87a3.37 3.37 0 0 0-.94-2.61c3.14-.35 6.44-1.54 6.44-7A5.44 5.44 0 0 0 20 4.77 5.07 5.07 0 0 0 19.91 1S18.73.65 16 2.48a13.38 13.38 0 0 0-7 0C6.27.65 5.09 1 5.09 1A5.07 5.07 0 0 0 5 4.77a5.44 5.44 0 0 0-1.5 3.78c0 5.42 3.3 6.61 6.44 7A3.37 3.37 0 0 0 9 18.13V22"></path>
  </symbol>
  <symbol id="icon-repo" viewBox= "0 0 16 16">
    <path d="M2 2.5A2.5 2.5 0 0 1 4.5 0h8.75a.75.75 0 0 1 .75.75v12.5a.75.75 0 0 1-.75.75h-2.5a.75.75 0 0 1 0-1.5h1.75v-2h-8a1 1 0 0 0-.714 1.7.75.75 0 1 1-1.072 1.05A2.495 2.495 0 0 1 2 11.5Zm10.5-1h-8a1 1 0 0 0-1 1v6.708A2.486 2.486 0 0 1 4.5 9h8ZM5 12.25a.25.25 0 0 1 .25-.25h3.5a.25.25 0 0 1 .25.25v3.25a.25.25 0 0 1-.4.2l-1.45-1.087a.249.249 0 0 0-.3 0L5.4 15.7a.25.25 0 0 1-.4-.2Z"></path>
  </symbol>
  <symbol id="icon-follower" viewBox= "0 0 328 328">
    <g id="XMLID_334_">
      <path id="XMLID_337_" d="M177.75,64.001C177.75,29.4,149.601,1.25,115,1.25c-34.602,0-62.75,28.15-62.75,62.751
		S80.398,126.75,115,126.75C149.601,126.75,177.75,98.602,177.75,64.001z"/>
      <path id="XMLID_338_" d="M228.606,181.144c-5.858-5.857-15.355-5.858-21.214-0.001c-5.857,5.857-5.857,15.355,0,21.214
		l19.393,19.396l-19.393,19.391c-5.857,5.857-5.857,15.355,0,21.214c2.93,2.929,6.768,4.394,10.607,4.394
		c3.838,0,7.678-1.465,10.605-4.393l30-29.998c2.813-2.814,4.395-6.629,4.395-10.607c0-3.978-1.58-7.793-4.394-10.607
		L228.606,181.144z"/>
      <path id="XMLID_340_" d="M223,116.75c-34.488,0-65.145,16.716-84.298,42.47c-7.763-1.628-15.694-2.47-23.702-2.47
		c-63.412,0-115,51.589-115,115c0,8.284,6.715,15,15,15h125.596c19.246,24.348,49.03,40,82.404,40c57.896,0,105-47.103,105-105
		C328,163.854,280.896,116.75,223,116.75z M223,296.75c-41.356,0-75-33.645-75-75s33.644-75,75-75c41.354,0,75,33.645,75,75
		S264.354,296.75,223,296.75z"/>
    </g>
  </symbol>
  <symbol id="icon-following" viewBox= "0 0 328 328">
    <g id="XMLID_350_">
      <path id="XMLID_351_" d="M52.25,64.001c0,34.601,28.149,62.749,62.75,62.749c34.602,0,62.751-28.148,62.751-62.749
		S149.602,1.25,115,1.25C80.399,1.25,52.25,29.4,52.25,64.001z"/>
      <path id="XMLID_352_" d="M217.394,262.357c2.929,2.928,6.768,4.393,10.606,4.393c3.839,0,7.678-1.465,10.607-4.394
		c5.857-5.858,5.857-15.356-0.001-21.214l-19.393-19.391l19.395-19.396c5.857-5.858,5.857-15.356-0.001-21.214
		c-5.858-5.857-15.356-5.856-21.214,0.001l-30,30.002c-2.813,2.814-4.393,6.629-4.393,10.607c0,3.979,1.58,7.794,4.394,10.607
		L217.394,262.357z"/>
      <path id="XMLID_439_" d="M15,286.75h125.596c19.246,24.348,49.031,40,82.404,40c57.896,0,105-47.103,105-105
		c0-57.896-47.104-105-105-105c-34.488,0-65.145,16.716-84.297,42.47c-7.764-1.628-15.695-2.47-23.703-2.47
		c-63.411,0-115,51.589-115,115C0,280.034,6.716,286.75,15,286.75z M223,146.75c41.355,0,75,33.645,75,75s-33.645,75-75,75
		s-75-33.645-75-75S181.644,146.75,223,146.75z"/>
    </g>
  </symbol>
  <symbol id="icon-error" viewBox="0 0 24 24">
    <path d="M2.20164 18.4695L10.1643 4.00506C10.9021 2.66498 13.0979 2.66498 13.8357 4.00506L21.7984 18.4695C22.4443 19.6428 21.4598 21 19.9627 21H4.0373C2.54022 21 1.55571 19.6428 2.20164 18.4695Z"/>
    <path d="M12 9V13"/>
    <path d="M12 17.0195V17"/>
  </symbol>
</svg>